<svg xmlns="http://www.w3.org/2000/svg" viewBox="-500 -500 1000 1000">
  <!-- background -->
  <rect fill="#ad1457" x="-500" y="-500" width="1000" height="1000" />

  <!-- logo -->
  <g transform="translate(0, -100) scale(0.75)">
    <!-- M -->
    <path
      class="letter"
      fill="none"
      stroke="#ffffff"
      stroke-linecap="round"
      stroke-linejoin="round"
      stroke-width="50"
      d="
        M -125 125 
        L -125 -125
        L 0 45
        L 125 -125
        L 125 125
      "
    />
    <!-- left bracket -->
    <path
      class="bracket"
      fill="none"
      stroke="#ffffff"
      stroke-linecap="round"
      stroke-linejoin="round"
      stroke-width="50"
      d="
        M -200 -250
        L -330 0 
        L -200 250
      "
    />
    <!-- right bracket -->
    <path
      class="bracket"
      fill="none"
      stroke="#ffffff"
      stroke-linecap="round"
      stroke-linejoin="round"
      stroke-width="50"
      d="
        m 200 250 
        L 330 0
        L 200 -250
      "
    />
    <!-- left line -->
    <path
      class="line"
      fill="none"
      stroke="#ffffff"
      stroke-linecap="round"
      stroke-width="50"
      d="
        M -330 0
        L -370 0
      "
    />
    <!-- right line -->
    <path
      class="line"
      fill="none"
      stroke="#ffffff"
      stroke-linecap="round"
      stroke-width="50"
      d="
        M 330 0
        L 370 0
      "
    />
    <!-- left circle -->
    <circle
      class="circle"
      cx="-455"
      cy="0"
      r="30"
      fill="none"
      stroke="#ffffff"
      stroke-width="30"
    />
    <!-- right circle -->
    <circle
      class="circle"
      cx="455"
      cy="0"
      r="30"
      fill="none"
      stroke="#ffffff"
      stroke-width="30"
    />
  </g>

  <!-- text -->
  <g fill="#ffffff" transform="translate(0, 250) scale(1.25)">
    <path
      d="M -279.3,-47.4 Q -278,-47.4 -276.6,-46.7 -275,-46 -274.2,-44.7 L -236.8,11.7 -241.9,11.6 -204.1,-44.7 Q -202.1,-47.4 -199.3,-47.4 -197,-47.3 -195.3,-45.6 -193.5,-44 -193.5,-41.6 V 45.7 Q -193.5,48.1 -195.2,49.8 -196.9,51.5 -199.4,51.5 -202.1,51.5 -203.8,49.8 -205.3,48.1 -205.3,45.7 V -30.8 L -201.8,-30.2 -235.1,20.4 Q -236,21.6 -237.2,22.3 -238.3,23 -239.8,22.8 -241,23 -242.3,22.3 -243.6,21.6 -244.3,20.4 L -277.2,-30.1 -274.2,-33.9 V 45.7 Q -274.2,48.1 -275.7,49.8 -277.3,51.5 -279.7,51.5 -282.1,51.5 -283.6,49.8 -285.2,48.1 -285.2,45.7 V -41.6 Q -285.2,-43.9 -283.5,-45.6 -281.8,-47.4 -279.3,-47.4 Z"
    />
    <path
      d="M -111.3,-22.2 Q -108.8,-22.2 -107.2,-20.5 -105.7,-18.9 -105.7,-16.5 V 45.7 Q -105.7,48.1 -107.4,49.8 -108.9,51.5 -111.3,51.5 -113.9,51.5 -115.4,49.8 -117,48.1 -117,45.7 V 32.3 L -114.3,32 Q -114.3,35.3 -116.4,38.9 -118.5,42.5 -122.2,45.7 -125.9,48.8 -130.9,50.9 -135.9,52.9 -141.5,52.9 -151.3,52.9 -158.9,48 -166.5,42.9 -171,34.3 -175.4,25.7 -175.4,14.7 -175.4,3.5 -171,-5 -166.5,-13.6 -158.9,-18.4 -151.3,-23.3 -141.9,-23.3 -135.9,-23.3 -130.7,-21.3 -125.4,-19.3 -121.6,-16 -117.7,-12.6 -115.6,-8.5 -113.3,-4.4 -113.3,-0.3 L -117,-1.1 V -16.5 Q -117,-18.9 -115.4,-20.5 -113.9,-22.2 -111.3,-22.2 Z M -140.4,42.5 Q -133.3,42.5 -128,38.8 -122.5,35.1 -119.5,28.9 -116.4,22.6 -116.4,14.7 -116.4,6.9 -119.5,0.7 -122.5,-5.5 -128,-9.2 -133.3,-12.9 -140.4,-12.9 -147.3,-12.9 -152.8,-9.2 -158.2,-5.7 -161.3,0.5 -164.4,6.8 -164.4,14.7 -164.4,22.6 -161.3,28.9 -158.2,35.1 -152.8,38.8 -147.3,42.5 -140.4,42.5 Z"
    />
    <path
      d="M -48.5,-23.3 Q -38.9,-23.3 -33.4,-19.3 -27.9,-15.4 -25.6,-8.8 -23.2,-2.1 -23.2,6.2 V 45.7 Q -23.2,48.1 -24.9,49.8 -26.5,51.5 -28.9,51.5 -31.4,51.5 -33,49.8 -34.5,48.1 -34.5,45.7 V 6.5 Q -34.5,1.1 -36.2,-3.3 -37.7,-7.6 -41.6,-10.2 -45.4,-12.9 -51.7,-12.9 -57.6,-12.9 -62.6,-10.2 -67.5,-7.6 -70.5,-3.3 -73.4,1.1 -73.4,6.5 V 45.7 Q -73.4,48.1 -75.1,49.8 -76.7,51.5 -79.1,51.5 -81.5,51.5 -83.2,49.8 -84.7,48.1 -84.7,45.7 V -15.7 Q -84.7,-18.2 -83.2,-19.8 -81.5,-21.5 -79.1,-21.5 -76.6,-21.5 -75,-19.8 -73.4,-18.2 -73.4,-15.7 V -5.8 L -76.3,-2.7 Q -75.6,-6.4 -73,-10 -70.5,-13.8 -66.7,-16.8 -62.9,-19.8 -58.2,-21.5 -53.6,-23.3 -48.5,-23.3 Z"
    />
    <path
      d="M 52.3,-21.5 Q 54.8,-21.5 56.4,-19.8 57.9,-18.2 57.9,-15.7 V 22.7 Q 57.9,37 49.9,44.9 42,52.6 27.7,52.6 13.6,52.6 5.6,44.9 -2.3,37 -2.3,22.7 V -15.7 Q -2.3,-18.2 -0.8,-19.8 0.9,-21.5 3.3,-21.5 5.9,-21.5 7.4,-19.8 9,-18.2 9,-15.7 V 22.7 Q 9,32.3 13.9,37.2 18.8,42.2 27.7,42.2 36.8,42.2 41.7,37.2 46.6,32.3 46.6,22.7 V -15.7 Q 46.6,-18.2 48.2,-19.8 49.7,-21.5 52.3,-21.5 Z"
    />
    <path
      d="M 114.7,-23.3 Q 124.3,-23.3 131.9,-18.4 139.5,-13.6 143.9,-5.1 148.4,3.4 148.4,14.5 148.4,25.7 143.9,34.3 139.5,42.9 131.9,48 124.4,52.9 115,52.9 109.7,52.9 105.1,51.3 100.6,49.7 96.8,47 93.1,44.2 90.6,40.9 88,37.7 86.9,34.3 L 90,32.4 V 46.4 Q 90,48.8 88.4,50.5 86.9,52.2 84.3,52.2 81.9,52.2 80.2,50.6 78.7,48.9 78.7,46.4 V -47.1 Q 78.7,-49.5 80.2,-51.2 81.9,-52.9 84.3,-52.9 86.9,-52.9 88.4,-51.2 90,-49.5 90,-47.1 V -3.7 L 87.9,-4.8 Q 88.9,-8.3 91.3,-11.6 93.8,-15 97.3,-17.5 101,-20.2 105.4,-21.7 109.9,-23.3 114.7,-23.3 Z M 113.4,-12.9 Q 106.4,-12.9 100.9,-9.2 95.5,-5.7 92.4,0.5 89.4,6.6 89.4,14.5 89.4,22.4 92.4,28.8 95.5,35.1 100.9,38.8 106.4,42.5 113.4,42.5 120.5,42.5 125.8,38.8 131.2,35.1 134.3,28.8 137.4,22.4 137.4,14.5 137.4,6.6 134.3,0.5 131.2,-5.7 125.8,-9.2 120.5,-12.9 113.4,-12.9 Z"
    />
    <path
      d="M 233.3,14.8 Q 233.3,25.8 228.5,34.4 223.7,43 215.3,48 207.2,52.9 196.7,52.9 186.4,52.9 178.1,48 169.8,43 164.8,34.4 160,25.8 160,14.8 160,3.8 164.8,-4.8 169.8,-13.4 178.1,-18.4 186.4,-23.3 196.7,-23.3 207.2,-23.3 215.3,-18.4 223.7,-13.4 228.5,-4.8 233.3,3.8 233.3,14.8 Z M 222,14.8 Q 222,6.6 218.6,0.5 215.3,-5.7 209.6,-9.2 203.9,-12.9 196.7,-12.9 189.7,-12.9 183.9,-9.2 178.1,-5.7 174.7,0.5 171.5,6.6 171.5,14.8 171.5,22.8 174.7,29.1 178.1,35.3 183.9,38.9 189.7,42.5 196.7,42.5 203.9,42.5 209.6,38.9 215.3,35.3 218.6,29.1 222,22.8 222,14.8 Z"
    />
    <path
      d="M 246.8,-21 H 279.9 Q 282.2,-21 283.6,-19.5 285.1,-17.9 285.1,-15.7 285.1,-13.6 283.6,-12 282.2,-10.6 279.9,-10.6 H 246.8 Q 244.6,-10.6 242.9,-12.2 241.4,-13.7 241.4,-15.8 241.4,-18.1 242.9,-19.5 244.6,-21 246.8,-21 Z M 261.6,-40.2 Q 264,-40.2 265.5,-38.5 267.1,-36.8 267.1,-34.4 V 33.6 Q 267.1,37 268.1,38.6 269,40.3 270.6,41 272.3,41.6 273.8,41.6 275.3,41.6 276.2,41.2 277.4,40.6 278.8,40.6 280.2,40.6 281.3,42 282.6,43.3 282.6,45.4 282.6,48 279.6,49.8 276.7,51.5 273,51.5 271,51.5 268.1,51.2 265.2,50.9 262.4,49.4 259.6,47.8 257.6,44.3 255.8,40.6 255.8,34.1 V -34.4 Q 255.8,-36.8 257.5,-38.5 259.2,-40.2 261.6,-40.2 Z"
    />
  </g>
</svg>
